<?xml version="1.0" encoding="UTF-8" standalone="no"?>
<!-- Created with Inkscape (http://www.inkscape.org/) -->

<svg
   version="1.1"
   id="svg2"
   width="300"
   height="193.36"
   viewBox="0 0 578.20001 193.36"
   sodipodi:docname="CMG-Logo-Colour.eps"
   xmlns:inkscape="http://www.inkscape.org/namespaces/inkscape"
   xmlns:sodipodi="http://sodipodi.sourceforge.net/DTD/sodipodi-0.dtd"
   xmlns="http://www.w3.org/2000/svg"
   xmlns:svg="http://www.w3.org/2000/svg">
  <defs
     id="defs6" />
  <sodipodi:namedview
     id="namedview4"
     pagecolor="#ffffff"
     bordercolor="#000000"
     borderopacity="0.25"
     inkscape:showpageshadow="2"
     inkscape:pageopacity="0.0"
     inkscape:pagecheckerboard="0"
     inkscape:deskcolor="#d1d1d1" />
  <g
     id="g8"
     inkscape:groupmode="layer"
     inkscape:label="ink_ext_XXXXXX"
     transform="matrix(1.3333333,0,0,-1.3333333,0,193.36)">
    <g
       id="g10"
       transform="scale(0.1)">
      <path
         d="M 762.828,0 C 651.559,0 549.262,17.8984 455.914,53.6602 362.535,89.4102 281.754,139.391 213.539,203.609 145.32,267.828 92.6836,344.328 55.6211,433.07 18.5313,521.762 0,619.105 0,725.078 0,831.02 18.8789,928.363 56.6055,1017.11 c 37.7578,88.71 91.0625,165.18 159.9145,229.43 68.851,64.23 150.648,114.23 245.332,149.99 94.679,35.76 198.972,53.62 312.878,53.62 64.887,0 128.79,-7.64 191.708,-22.81 62.882,-15.27 122.472,-38.46 178.792,-69.55 56.26,-31.13 107.56,-70.54 153.95,-118.2 L 1042.9,939.629 c -18.56,22.496 -40.71,43.023 -66.533,61.581 -25.828,18.54 -55.621,33.45 -89.383,44.68 -33.789,11.24 -72.531,16.91 -116.222,16.91 -45.024,0 -87.758,-7.64 -128.121,-22.87 -40.422,-15.23 -75.485,-37.41 -105.278,-66.539 -29.824,-29.129 -53.336,-64.887 -70.535,-107.25 -17.226,-42.418 -25.824,-91.379 -25.824,-147.028 0,-50.324 8.598,-96.011 25.824,-137.07 17.199,-41.059 41.727,-76.148 73.488,-105.277 31.793,-29.125 70.184,-51.657 115.239,-67.528 44.996,-15.886 95.343,-23.847 150.968,-23.847 39.723,0 77.481,5.961 113.239,17.89 35.758,11.93 68.187,27.449 97.318,46.668 29.13,19.172 54.29,40.715 75.48,64.571 L 1297.18,192.719 C 1262.73,155.602 1217.04,122.48 1160.11,93.3789 1103.16,64.2188 1040.24,41.4102 971.387,24.8516 902.535,8.28125 832.984,0 762.828,0"
         style="fill:#231f20;fill-opacity:1;fill-rule:nonzero;stroke:none"
         id="path12" />
      <path
         d="M 2465.22,1410.42 2103.13,829.383 1746.09,1410.42 H 1376.6 V 19.8594 h 413.21 V 351.629 c 0,128.441 -2.98,239.391 -8.95,332.742 -0.51,7.996 -1.23,15.875 -1.81,23.848 l 251.11,-396.321 h 131.13 l 260.34,403.625 c -1.06,-14.031 -2.23,-28.039 -3.11,-42.093 -5.96,-95.328 -8.92,-202.629 -8.92,-321.801 V 19.8594 h 413.18 V 1410.42 h -357.56"
         style="fill:#231f20;fill-opacity:1;fill-rule:nonzero;stroke:none"
         id="path14" />
      <path
         d="m 4333.25,547.512 c 2.13,21.679 3.2,43.797 3.2,66.328 v 236.379 h -693.28 v -301.93 l 690.08,-0.777"
         style="fill:#01927d;fill-opacity:1;fill-rule:nonzero;stroke:none"
         id="path16" />
      <path
         d="m 3912.8,476.836 c -10.44,-18.379 -23.15,-34.645 -38.2,-48.715 -20.55,-19.223 -45.05,-34.461 -73.51,-45.691 -28.49,-11.289 -59.93,-16.899 -94.36,-16.899 -50.33,0 -96.68,8.938 -139.04,26.801 -42.42,17.898 -78.82,42.738 -109.27,74.527 -30.46,31.766 -54.32,69.84 -71.52,114.2 -17.23,44.359 -25.8,92.367 -25.8,144.019 0,51.649 8.25,99.66 24.81,144.02 16.57,44.359 39.41,82.457 68.54,114.254 29.13,31.768 63.58,56.568 103.31,74.468 39.72,17.89 83.41,26.81 131.1,26.81 46.33,0 88.05,-5.61 125.14,-16.88 36.12,-10.98 69.04,-25.79 98.92,-44.3 l 196.87,315.93 c -0.27,0.16 -0.52,0.34 -0.8,0.51 -56.29,33.8 -119.18,60.6 -188.7,80.47 -69.54,19.86 -144.71,29.78 -225.46,29.78 -116.57,0 -222.2,-17.86 -316.85,-53.61 -94.71,-35.76 -176.5,-86.11 -245.33,-150.98 -68.88,-64.91 -121.52,-141.41 -157.94,-229.43 -36.43,-88.104 -54.61,-185.097 -54.61,-291.042 0,-104.64 16.18,-201.285 48.64,-290.008 32.46,-88.769 80.46,-165.55 144.05,-230.449 C 3176.34,139.73 3254.11,89.4102 3346.19,53.6602 3438.2,17.8984 3543.83,0 3663.03,0 c 97.99,0 188.03,15.2617 270.18,45.6992 82.08,30.461 153.25,72.8398 213.54,127.1598 60.25,54.262 106.92,119.18 140.05,194.661 15.33,34.98 26.87,71.48 35.09,109.316 H 3912.8"
         style="fill:#231f20;fill-opacity:1;fill-rule:nonzero;stroke:none"
         id="path18" />
    </g>
  </g>
</svg>
